<svg width="32" height="32" viewBox="0 0 256 256" fill="none" xmlns="http://www.w3.org/2000/svg">
  <rect width="256" height="256" rx="60" fill="black"/>
  <path d="M164,148H92a44,44,0,1,0,0,16h72a44,44,0,1,0,0-16ZM64,180a28,28,0,1,1,28-28A28,28,0,0,1,64,180ZM92,108h72a44,44,0,1,0-72,0Zm100-16a28,28,0,1,1-28-28A28,28,0,0,1,192,92ZM64,108a44,44,0,1,0,28-76,44,44,0,0,0-28,76ZM64,48a28,28,0,1,1-28,28A28,28,0,0,1,64,48Zm128,60h-28a44,44,0,1,0,28,76,44,44,0,0,0,0-76Zm0,108a28,28,0,1,1,28-28A28,28,0,0,1,192,216Z" fill="white"/>
</svg>
